<svg width="183" height="52" fill="none" xmlns="http://www.w3.org/2000/svg"><path fill="#FFDD9C" d="M.5 0h181.555v51.999H.5z"/><path d="M23.246 43.914c.462.203.998.033 1.267-.406l12.26-20.11a1.08 1.08 0 0 0-.345-1.47.998.998 0 0 0-.52-.148h-8.18l3.043-12.467a1.065 1.065 0 0 0-.588-1.229 1.006 1.006 0 0 0-1.267.406L16.656 28.6a1.08 1.08 0 0 0 .345 1.471.996.996 0 0 0 .52.147h8.182l-3.045 12.467a1.065 1.065 0 0 0 .588 1.23z" fill="#FF7260"/><path d="M43.93 34.714V17.26h6.68c1.262 0 2.31.2 3.145.597.841.392 1.47.93 1.884 1.61.42.682.63 1.455.63 2.32 0 .71-.136 1.317-.409 1.823-.272.5-.639.906-1.099 1.218a4.65 4.65 0 0 1-1.543.674v.17a3.79 3.79 0 0 1 1.782.571 3.96 3.96 0 0 1 1.406 1.45c.364.624.545 1.38.545 2.266 0 .904-.218 1.716-.656 2.438-.437.716-1.096 1.28-1.977 1.696-.88.416-1.989.622-3.324.622H43.93zm3.161-2.642h3.4c1.148 0 1.975-.219 2.48-.656.512-.444.767-1.012.767-1.705a2.61 2.61 0 0 0-1.474-2.386c-.472-.245-1.034-.367-1.688-.367h-3.485v5.114zm0-7.39h3.128c.545 0 1.036-.099 1.474-.298a2.483 2.483 0 0 0 1.031-.86c.256-.376.384-.819.384-1.33 0-.676-.239-1.233-.716-1.67-.472-.438-1.174-.657-2.105-.657h-3.196v4.815zm18.27 10.288c-1.312 0-2.446-.273-3.4-.819a5.541 5.541 0 0 1-2.19-2.335c-.512-1.01-.768-2.202-.768-3.57 0-1.348.256-2.529.767-3.546.517-1.023 1.24-1.819 2.165-2.387.926-.574 2.014-.86 3.264-.86.807 0 1.57.13 2.284.391.717.253 1.37.66 1.91 1.194.556.54.994 1.227 1.312 2.062.318.83.477 1.818.477 2.966v.946h-10.73v-2.08h7.773c-.006-.59-.134-1.116-.384-1.576-.25-.466-.6-.833-1.048-1.1-.443-.267-.96-.4-1.55-.4-.63 0-1.186.153-1.663.46-.477.301-.85.7-1.116 1.193a3.434 3.434 0 0 0-.4 1.611v1.815c0 .762.14 1.415.417 1.96.278.54.667.955 1.167 1.245.5.284 1.085.426 1.756.426.45 0 .855-.062 1.22-.187.362-.13.678-.32.945-.57.267-.25.468-.56.605-.93l2.88.323a4.49 4.49 0 0 1-1.04 1.995c-.505.562-1.153 1-1.943 1.312-.79.307-1.693.461-2.71.461zm18.778-9.887-2.813.307a2.26 2.26 0 0 0-.417-.8 2.072 2.072 0 0 0-.784-.606c-.329-.153-.733-.23-1.21-.23-.643 0-1.182.14-1.62.417-.432.28-.645.64-.639 1.082-.006.381.134.69.418.93.29.238.767.434 1.431.588l2.233.477c1.24.267 2.16.69 2.762 1.27.608.58.914 1.338.92 2.275a3.558 3.558 0 0 1-.724 2.182c-.472.625-1.128 1.114-1.969 1.466-.84.352-1.807.528-2.898.528-1.602 0-2.892-.335-3.87-1.005-.976-.676-1.559-1.617-1.746-2.82l3.008-.29c.137.59.426 1.036.87 1.337.443.301 1.02.452 1.73.452.733 0 1.32-.15 1.764-.452.45-.3.673-.673.673-1.116 0-.375-.145-.685-.434-.93-.285-.244-.728-.43-1.33-.562l-2.233-.469c-1.256-.26-2.185-.7-2.787-1.32-.602-.626-.9-1.416-.895-2.37-.005-.807.213-1.506.656-2.097.45-.596 1.071-1.056 1.867-1.38.801-.33 1.724-.495 2.77-.495 1.534 0 2.741.327 3.622.98.886.654 1.435 1.537 1.645 2.651zm9.362-3.46v2.386h-7.524v-2.386h7.524zm-5.667-3.136h3.085v12.29c0 .414.062.732.187.954.13.216.301.364.512.443.211.08.443.12.698.12.194 0 .37-.015.53-.043.164-.029.29-.054.374-.077l.52 2.412c-.165.057-.4.12-.708.187-.3.07-.67.108-1.108.12-.772.023-1.468-.094-2.088-.35a3.247 3.247 0 0 1-1.474-1.21c-.358-.545-.534-1.227-.529-2.045l.001-12.8zm23.823 3.571c-.08-.745-.415-1.324-1.006-1.74-.585-.414-1.347-.62-2.284-.62-.659 0-1.225.1-1.696.297-.472.2-.833.47-1.083.81a1.97 1.97 0 0 0-.383 1.167c0 .364.082.68.247.946.17.267.4.495.69.682.29.182.611.335.964.46.352.125.707.23 1.065.316l1.636.41c.659.152 1.293.36 1.901.621.593.25 1.147.582 1.645.99a4.38 4.38 0 0 1 1.159 1.44c.284.562.426 1.221.426 1.976 0 1.023-.261 1.924-.784 2.702-.523.773-1.279 1.378-2.267 1.815-.983.432-2.174.648-3.571.648-1.358 0-2.537-.21-3.537-.63-.995-.42-1.773-1.035-2.335-1.842-.557-.806-.858-1.79-.904-2.949h3.111c.045.61.233 1.114.562 1.518.33.403.759.704 1.287.903.574.206 1.18.307 1.79.298.688 0 1.29-.102 1.807-.306.523-.21.932-.5 1.227-.87.296-.375.446-.812.452-1.312-.006-.455-.139-.83-.401-1.125-.261-.3-.627-.55-1.099-.75a10.596 10.596 0 0 0-1.636-.546l-1.986-.51c-1.438-.37-2.574-.93-3.41-1.68-.829-.756-1.244-1.759-1.244-3.009 0-1.028.279-1.929.836-2.7.562-.774 1.326-1.373 2.292-1.8.966-.43 2.06-.647 3.282-.647 1.238 0 2.323.216 3.255.647.938.427 1.673 1.02 2.208 1.782.534.755.809 1.625.826 2.608h-3.042zm11.759 12.912c-1.313 0-2.446-.273-3.401-.819a5.536 5.536 0 0 1-2.19-2.335c-.511-1.01-.767-2.202-.767-3.57 0-1.348.256-2.529.767-3.546.517-1.023 1.239-1.819 2.165-2.387.926-.574 2.014-.86 3.264-.86.807 0 1.568.13 2.284.391a5.15 5.15 0 0 1 1.909 1.194c.557.54.994 1.227 1.313 2.062.318.83.477 1.818.477 2.966v.946h-10.73v-2.08h7.773c-.006-.59-.134-1.116-.384-1.576a2.786 2.786 0 0 0-1.048-1.1c-.443-.267-.961-.4-1.551-.4-.631 0-1.185.153-1.662.46-.478.301-.85.7-1.117 1.193a3.44 3.44 0 0 0-.4 1.611v1.815c0 .762.139 1.415.417 1.96.279.54.668.955 1.168 1.245.5.284 1.085.426 1.756.426.414.006.825-.057 1.218-.187.364-.13.679-.32.946-.57.267-.25.469-.56.605-.93l2.881.323a4.475 4.475 0 0 1-1.04 1.995c-.505.562-1.153 1-1.943 1.312-.79.307-1.693.461-2.71.461zm11.516-17.71v17.454h-3.085V17.26h3.085zm6.258 0v17.454h-3.085V17.26h3.085zm8.968 17.71c-1.312 0-2.446-.273-3.4-.819a5.546 5.546 0 0 1-2.191-2.335c-.511-1.01-.767-2.202-.767-3.57 0-1.348.256-2.529.767-3.546.517-1.023 1.239-1.819 2.165-2.387.926-.574 2.014-.86 3.264-.86.807 0 1.568.13 2.284.391a5.15 5.15 0 0 1 1.909 1.194c.557.54.995 1.227 1.313 2.062.318.83.477 1.818.477 2.966v.946h-10.73v-2.08h7.773c-.006-.59-.134-1.116-.384-1.576a2.786 2.786 0 0 0-1.048-1.1c-.443-.267-.96-.4-1.551-.4-.631 0-1.185.153-1.662.46-.477.301-.85.7-1.117 1.193a3.44 3.44 0 0 0-.4 1.611v1.815c0 .762.139 1.415.417 1.96.279.54.668.955 1.168 1.245.5.284 1.085.426 1.756.426.449 0 .855-.062 1.218-.187.352-.123.674-.317.946-.57.268-.25.469-.56.606-.93l2.88.323a4.475 4.475 0 0 1-1.04 1.995c-.505.562-1.153 1-1.943 1.312-.789.307-1.693.461-2.71.461zm8.431-.256V21.622h2.992v2.182h.136c.239-.756.648-1.338 1.227-1.748a3.38 3.38 0 0 1 2.003-.622c.171 0 .361.01.571.026.216.011.395.031.537.06v2.838c-.203-.06-.411-.1-.622-.12a5.746 5.746 0 0 0-.81-.06c-.562 0-1.068.123-1.517.367-.434.23-.796.575-1.048.997-.256.426-.384.918-.384 1.475v7.696l-3.085.001z" fill="#000"/></svg>