<svg width="161" height="52" fill="none" xmlns="http://www.w3.org/2000/svg"><path fill="#B5FFDB" d="M.5 0h160.21v51.999H.5z"/><path d="M23.246 43.914c.462.203.998.033 1.267-.406l12.26-20.11a1.08 1.08 0 0 0-.345-1.47.998.998 0 0 0-.52-.148h-8.18l3.043-12.467a1.065 1.065 0 0 0-.588-1.229 1.006 1.006 0 0 0-1.267.406L16.656 28.6a1.08 1.08 0 0 0 .345 1.471.996.996 0 0 0 .52.147h8.182l-3.045 12.467a1.065 1.065 0 0 0 .588 1.23z" fill="#7D68FF"/><path d="M43.93 17.754v-2.65h13.925v2.65H52.46v14.804h-3.135V17.754H43.93zm15.115 14.804v-13.09h2.99v2.18h.137c.24-.754.648-1.337 1.227-1.746a3.377 3.377 0 0 1 2.003-.622c.17 0 .36.009.571.026.216.01.395.03.537.06v2.837c-.203-.06-.411-.1-.622-.12a5.704 5.704 0 0 0-.81-.06c-.562 0-1.068.124-1.517.368a2.68 2.68 0 0 0-1.048.997c-.256.426-.384.918-.384 1.474v7.696h-3.084zm14.771.256c-1.312 0-2.446-.273-3.4-.818a5.54 5.54 0 0 1-2.19-2.335c-.512-1.012-.768-2.202-.768-3.571 0-1.347.256-2.53.767-3.546.517-1.023 1.24-1.818 2.165-2.386.926-.574 2.014-.86 3.264-.86.807 0 1.568.13 2.284.39.717.253 1.37.66 1.91 1.194.556.54.994 1.228 1.312 2.063.318.83.477 1.818.477 2.966v.946h-10.73v-2.08h7.773c-.006-.59-.134-1.116-.384-1.576-.25-.466-.6-.833-1.048-1.1-.443-.267-.96-.4-1.55-.4-.63 0-1.186.153-1.663.46-.477.3-.85.699-1.117 1.193a3.433 3.433 0 0 0-.4 1.61v1.816c0 .76.14 1.415.417 1.96.28.54.668.955 1.168 1.245.5.284 1.085.426 1.756.426.45 0 .855-.063 1.218-.188.364-.13.68-.32.947-.57.267-.25.468-.56.605-.93l2.88.324a4.494 4.494 0 0 1-1.04 1.994c-.505.563-1.153 1-1.943 1.313-.79.307-1.693.46-2.71.46zm11.517-7.926v7.67h-3.086v-13.09h2.95v2.224h.153a3.74 3.74 0 0 1 1.44-1.747c.665-.432 1.486-.648 2.463-.648.903 0 1.69.193 2.36.58.677.386 1.2.946 1.57 1.679.374.732.56 1.622.553 2.667v8.335h-3.085V24.7c0-.875-.228-1.56-.682-2.054-.449-.494-1.07-.741-1.867-.741-.54 0-1.02.12-1.44.358a2.48 2.48 0 0 0-.98 1.014c-.233.443-.349.98-.349 1.61zm16.397 7.9c-1.028 0-1.949-.264-2.76-.792-.813-.528-1.456-1.295-1.927-2.301-.47-1.006-.708-2.228-.708-3.665 0-1.454.24-2.682.716-3.682.483-1.006 1.134-1.764 1.952-2.275a5.015 5.015 0 0 1 2.736-.776c.767 0 1.398.13 1.892.392.494.256.886.565 1.176.93.29.357.514.695.673 1.013h.128v-6.528h3.094v17.453h-3.034v-2.06h-.188a5.277 5.277 0 0 1-.69 1.014c-.301.352-.699.653-1.193.903-.494.25-1.117.375-1.867.375zm.861-2.531c.653 0 1.21-.176 1.67-.528.46-.358.81-.855 1.049-1.492.238-.636.358-1.377.358-2.224 0-.847-.12-1.582-.358-2.207-.233-.625-.58-1.111-1.04-1.458-.455-.346-1.014-.52-1.679-.52-.688 0-1.261.18-1.722.537-.46.358-.806.852-1.04 1.483-.232.63-.349 1.352-.349 2.165 0 .818.117 1.548.35 2.19.238.637.588 1.14 1.048 1.509.466.364 1.037.545 1.713.545zm9.398 2.3v-13.09h3.086v13.09h-3.086zm1.552-14.947c-.489 0-.909-.162-1.262-.486-.352-.33-.528-.725-.528-1.185 0-.466.176-.86.528-1.185.353-.33.773-.494 1.262-.494.494 0 .914.165 1.261.494.352.324.528.72.528 1.185 0 .46-.176.855-.528 1.185-.34.321-.793.496-1.261.486zm7.792 7.278v7.67h-3.086v-13.09h2.949v2.224h.154a3.74 3.74 0 0 1 1.44-1.747c.665-.432 1.486-.648 2.463-.648.903 0 1.69.193 2.361.58.679.39 1.226.974 1.568 1.679.375.732.56 1.622.554 2.667v8.335h-3.085V24.7c0-.875-.228-1.56-.682-2.054-.449-.494-1.071-.741-1.867-.741-.539 0-1.019.12-1.44.358a2.482 2.482 0 0 0-.98 1.014c-.233.443-.349.98-.349 1.61zm17.232 12.852c-1.107 0-2.059-.15-2.855-.452-.795-.295-1.434-.693-1.917-1.193a4.136 4.136 0 0 1-1.006-1.662l2.778-.673c.125.256.307.509.546.759.239.255.56.466.963.63.409.17.923.256 1.543.256.875 0 1.599-.213 2.173-.64.574-.42.861-1.113.861-2.08v-2.48h-.154a4.385 4.385 0 0 1-.699.98c-.301.336-.701.618-1.201.845-.495.227-1.117.34-1.867.34-1.005 0-1.917-.235-2.736-.707-.812-.477-1.46-1.187-1.943-2.13-.477-.95-.716-2.137-.716-3.563 0-1.437.239-2.65.716-3.64.483-.993 1.134-1.746 1.952-2.257a5.014 5.014 0 0 1 2.736-.776c.767 0 1.397.13 1.892.392.5.256.898.565 1.193.93.295.357.52.695.673 1.013h.171v-2.165h3.042V32.77c0 1.12-.267 2.046-.801 2.779-.534.733-1.264 1.28-2.19 1.645-.926.363-1.977.545-3.154.545zm.026-7.79c.653 0 1.21-.16 1.67-.477.461-.318.81-.775 1.049-1.372.238-.597.358-1.313.358-2.148 0-.824-.12-1.545-.358-2.165-.233-.62-.58-1.1-1.04-1.44-.455-.346-1.014-.52-1.679-.52-.687 0-1.261.18-1.722.537-.46.358-.806.85-1.039 1.475-.233.619-.35 1.323-.35 2.113 0 .8.117 1.503.35 2.105.238.597.588 1.063 1.048 1.398.466.33 1.037.494 1.713.494z" fill="#000"/></svg>