<svg width="68" height="62" viewBox="0 0 68 62" fill="none" xmlns="http://www.w3.org/2000/svg">
<path d="M67.8626 55.9098L60.3762 44.3772C59.8728 43.6008 59.0956 43.0675 58.1884 42.8747C57.7189 42.7751 57.2445 42.778 56.788 42.8694L54.5819 39.471C54.557 39.4331 54.5202 39.4105 54.4906 39.3779C56.8977 37.1624 58.5691 34.2765 59.2658 31.0159C60.1545 26.8554 59.3665 22.5981 57.0478 19.0307C56.3582 17.96 55.5157 16.9576 54.5475 16.0524C52.0662 13.7171 48.8154 12.2234 45.3956 11.8474C41.8489 11.4453 38.3727 12.2194 35.3762 14.0612C35.2286 14.143 35.0976 14.2207 34.9606 14.3085C34.9333 14.3257 34.9079 14.3441 34.8835 14.3643C32.959 15.6141 31.3606 17.2358 30.1547 19.1512C30.0634 19.2811 29.9881 19.4068 29.9009 19.5521C28.6606 21.6371 27.9041 24.0194 27.7131 26.4419C27.5252 28.8217 27.8809 31.2412 28.7394 33.4307C29.1319 34.4652 29.6341 35.4511 30.2294 36.3569C33.284 41.0678 38.4214 43.6352 43.6607 43.6352C45.7697 43.6352 47.8928 43.2099 49.9052 42.351C49.9229 42.3896 49.9277 42.4317 49.9514 42.4685L52.1557 45.8644C51.8836 46.2458 51.6867 46.6788 51.5871 47.1504C51.3962 48.0532 51.5699 48.9761 52.0745 49.7462L59.5609 61.2871C59.7234 61.538 59.9961 61.6744 60.2747 61.6744C60.433 61.6744 60.5931 61.6305 60.7354 61.538L67.6118 57.0873C67.8016 56.9645 67.9344 56.7711 67.9818 56.5511C68.0281 56.3298 67.9854 56.099 67.8626 55.9098ZM31.6523 35.4277C31.1223 34.6216 30.677 33.7467 30.3254 32.8195C29.557 30.8597 29.2399 28.7011 29.4076 26.5763C29.5778 24.4124 30.2537 22.2846 31.3671 20.4138C31.4258 20.3159 31.4792 20.2246 31.5687 20.0947C32.675 18.3389 34.1163 16.8814 35.853 15.7633C35.8773 15.7473 35.901 15.7307 35.9236 15.7123C36.0143 15.656 36.1068 15.6014 36.2325 15.5308C38.9349 13.8704 42.0405 13.1812 45.2071 13.5383C48.2647 13.8741 51.1675 15.2069 53.3843 17.2937C54.2529 18.1052 55.0047 18.9996 55.6206 19.9558C57.6927 23.1435 58.3965 26.9452 57.6032 30.6609C56.8069 34.3854 54.6031 37.5768 51.3961 39.647L51.3955 39.6476C44.79 43.925 35.9351 42.0316 31.6519 35.4277L31.6523 35.4277ZM52.3188 41.0759C52.6217 40.8808 52.9046 40.6637 53.1909 40.4507L55.2275 43.588L53.4494 44.7352L51.4218 41.611C51.7236 41.4419 52.0235 41.2669 52.3188 41.0759ZM60.5239 59.6477L53.4975 48.8156C53.2408 48.4247 53.153 47.9579 53.2491 47.5017C53.3469 47.0426 53.6191 46.6481 54.0554 46.3682L56.5064 44.7856C56.7963 44.5963 57.1271 44.4991 57.4657 44.4991C57.5884 44.4991 57.7123 44.5121 57.8356 44.5382C58.2981 44.6361 58.6936 44.9077 58.9509 45.304L65.9725 56.1212L60.5239 59.6477Z" fill="#DDE4EB"/>
<path d="M56.0951 30.3482C56.806 27.0299 56.1751 23.6305 54.3217 20.7796C53.7774 19.9331 53.1045 19.1335 52.3248 18.4051C51.659 17.7787 50.9221 17.2241 50.133 16.7572C48.5927 15.8449 46.8287 15.2582 45.0329 15.0613C42.2131 14.7409 39.4502 15.3572 37.0466 16.8337L36.6921 17.0496C35.1457 18.0467 33.8617 19.3452 32.8774 20.907L32.6888 21.2042C31.7005 22.8662 31.097 24.7656 30.9452 26.697C30.7958 28.5917 31.0827 30.5272 31.7723 32.2866C32.0817 33.1028 32.4796 33.8829 32.9521 34.6012C34.0318 36.2675 35.4387 37.6205 37.132 38.6241C39.1537 39.8217 41.3973 40.4184 43.6365 40.4184C46.0414 40.4184 48.4413 39.7309 50.5585 38.3606C53.4174 36.5135 55.3835 33.668 56.095 30.3479L56.0951 30.3482ZM49.6354 36.9308C46.0906 39.2245 41.6321 39.3131 37.9969 37.1597C36.5313 36.2913 35.3134 35.1191 34.3744 33.6706C33.967 33.0513 33.6261 32.3816 33.357 31.6734C32.7575 30.1449 32.5097 28.4702 32.639 26.83C32.7706 25.1572 33.2929 23.5123 34.1354 22.0946L34.3121 21.8158C35.1653 20.4628 36.2752 19.3399 37.5932 18.4906L37.9323 18.2841C39.6553 17.2259 41.5899 16.6802 43.5908 16.6802C44.0065 16.6802 44.4244 16.704 44.8442 16.7514C46.4041 16.9223 47.9326 17.4306 49.266 18.2207C49.9473 18.6241 50.5846 19.1034 51.1615 19.6467C51.8409 20.2814 52.4231 20.9725 52.8939 21.7045C54.5012 24.1762 55.0473 27.1196 54.4319 29.993C53.8165 32.867 52.1131 35.3309 49.6353 36.9309L49.6354 36.9308Z" fill="#DDE4EB"/>
<path d="M50.3623 44.8032H1.69994V9.29825H60.2053V43.4092C60.2053 43.879 60.5859 44.2598 61.0555 44.2598C61.5251 44.2598 61.9057 43.879 61.9057 43.4092V0.850624C61.9057 0.380819 61.5251 0 61.0555 0H0.850214C0.380635 0 0 0.380819 0 0.850624V45.6536C0 46.1234 0.380635 46.5042 0.850214 46.5042L50.3623 46.5036C50.8318 46.5036 51.2125 46.1228 51.2125 45.653C51.2119 45.1838 50.8312 44.8029 50.3623 44.8029L50.3623 44.8032ZM60.2067 1.70101V7.59658L1.70131 7.59717V1.7016L60.2067 1.70101Z" fill="#DDE4EB"/>
<path d="M6.00141 6.90504C7.24886 6.90504 8.26385 5.89247 8.26385 4.64682C8.26385 3.40174 7.24881 2.3886 6.00141 2.3886C4.754 2.3886 3.73896 3.40175 3.73896 4.64682C3.73896 5.89188 4.754 6.90504 6.00141 6.90504ZM6.00141 4.08921C6.31209 4.08921 6.56406 4.33893 6.56406 4.6468C6.56406 4.95406 6.31148 5.2038 6.00141 5.2038C5.69073 5.2038 5.43875 4.95408 5.43875 4.6468C5.43875 4.33895 5.69133 4.08921 6.00141 4.08921Z" fill="#DDE4EB"/>
<path d="M11.5201 6.90504C12.7676 6.90504 13.7826 5.89247 13.7826 4.64682C13.7826 3.40174 12.7676 2.3886 11.5201 2.3886C10.2727 2.3886 9.25771 3.40175 9.25771 4.64682C9.25771 5.89188 10.2727 6.90504 11.5201 6.90504ZM11.5201 4.08921C11.8308 4.08921 12.0828 4.33893 12.0828 4.6468C12.0828 4.95406 11.8302 5.2038 11.5201 5.2038C11.2095 5.2038 10.9575 4.95408 10.9575 4.6468C10.9575 4.33895 11.2101 4.08921 11.5201 4.08921Z" fill="#DDE4EB"/>
<path d="M17.0404 6.90504C18.2879 6.90504 19.3029 5.89247 19.3029 4.64682C19.3029 3.40174 18.2878 2.3886 17.0404 2.3886C15.793 2.3886 14.778 3.40175 14.778 4.64682C14.778 5.89188 15.793 6.90504 17.0404 6.90504ZM17.0404 4.08921C17.3511 4.08921 17.6031 4.33893 17.6031 4.6468C17.6031 4.95406 17.3505 5.2038 17.0404 5.2038C16.7297 5.2038 16.4778 4.95408 16.4778 4.6468C16.4778 4.33895 16.7303 4.08921 17.0404 4.08921Z" fill="#DDE4EB"/>
<path d="M14.8092 35.9137C13.1058 35.9137 11.7197 37.3005 11.7197 39.0046C11.7197 40.7095 13.1059 42.0962 14.8092 42.0962C16.5133 42.0962 17.8993 40.7094 17.8993 39.0046C17.8993 37.3004 16.5132 35.9137 14.8092 35.9137ZM14.8092 40.3958C14.0426 40.3958 13.4195 39.7718 13.4195 39.0048C13.4195 38.2378 14.0426 37.6144 14.8092 37.6144C15.5758 37.6144 16.1996 38.2378 16.1996 39.0048C16.1996 39.7717 15.5758 40.3958 14.8092 40.3958Z" fill="#DDE4EB"/>
<path d="M19.393 16.5918C19.393 14.0631 17.3368 12.006 14.8094 12.006C12.2819 12.006 10.2258 14.0631 10.2299 16.6755L10.3004 17.3458C10.3004 17.3742 10.3016 17.4098 10.3046 17.4377L11.7192 31.5328C11.7192 33.2376 13.1054 34.6244 14.8087 34.6244C16.5127 34.6244 17.8988 33.2375 17.8947 31.6175L19.3882 16.6748C19.3918 16.6481 19.393 16.6197 19.393 16.5918ZM16.1997 31.5339C16.1997 32.3009 15.576 32.9249 14.8094 32.9249C14.0427 32.9249 13.4196 32.3009 13.4155 31.4491L12.0002 17.354C12.0002 17.3261 11.999 17.2905 11.9961 17.2627L11.9255 16.5924C11.9255 15.0014 13.2192 13.7071 14.8094 13.7071C16.3865 13.7071 17.6724 14.9801 17.6932 16.5532L16.1997 31.5339Z" fill="#DDE4EB"/>
<path d="M40.0412 20.7465C40.1515 20.7465 40.2642 20.7246 40.3721 20.6789C40.6104 20.578 40.8541 20.4891 41.1043 20.4125C41.5531 20.2749 41.8057 19.7998 41.6681 19.3508C41.5312 18.9017 41.0539 18.6496 40.6069 18.7867C40.3003 18.8804 40.0009 18.9895 39.7098 19.1129C39.2776 19.2962 39.0754 19.7951 39.258 20.2275C39.395 20.5513 39.7104 20.7465 40.0412 20.7465Z" fill="#DDE4EB"/>
<path d="M43.344 35.3442C39.1368 35.3442 35.714 31.9198 35.714 27.7105C35.714 25.5858 36.6098 23.5405 38.1715 22.0985C38.5165 21.7799 38.5379 21.2425 38.2195 20.8967C37.9023 20.5526 37.3645 20.5295 37.0183 20.8486C35.1086 22.6109 34.0135 25.1118 34.0135 27.7106C34.0135 32.8577 38.1987 37.0449 43.3433 37.0449C43.8129 37.0449 44.1935 36.6641 44.1935 36.1943C44.1935 35.7251 43.8136 35.3442 43.344 35.3442Z" fill="#DDE4EB"/>
</svg>
