<svg width="374" height="162" fill="none" xmlns="http://www.w3.org/2000/svg"><g clip-path="url(#a)"><path fill="#24BAAD" d="M0 0h374v162H0z"/><g clip-path="url(#b)"><path d="M73.678 59.694c-2.543-8.24-11.365-12.86-19.665-10.298-6.71 2.071-9.484 6.407-10.947 12.337-4.614-4.178-9.187-6.122-15.797-4.082-8.292 2.56-12.968 11.345-10.425 19.585 2.24 7.256 7.985 13.44 18.63 20.05l.96-1.544c3.386 1.366 4.2 2.302 8.348 2.515 3.512.181 7.047-.171 10.464-.996 2.965-.716 5.823-1.779 8.202-3.733 1.021-.838 1.909-1.833 2.577-2.975.741-1.27 1.057-2.73 1.28-4.167.256-1.656.325-3.558 1.22-5.022.474-.775 1.145-1.38 1.728-2.053l1.931.67c2.76-7.965 3.25-14.6 1.494-20.287z" fill="#107B89"/><path d="M54.013 49.396c-6.71 2.071-9.484 6.407-10.947 12.336l-.013-.011 11.049 35.797c.383-.08.764-.165 1.145-.257 2.964-.716 5.822-1.779 8.201-3.733 1.021-.838 1.909-1.833 2.577-2.975.741-1.27 1.057-2.73 1.28-4.167.256-1.656.325-3.558 1.22-5.022.474-.775 1.145-1.38 1.728-2.053l1.931.67c2.76-7.965 3.25-14.6 1.494-20.287-2.543-8.24-11.365-12.86-19.665-10.298z" fill="#1492A4"/><path d="M55.157 109.648c-9.902 3.056-18.949-2.38-20.72-12.678l-.378-2.017c.854-.372 2.032-1.003 3.846-1.563 9.966-3.076 18.97 2.416 20.733 12.672l.377 2.015-1.236.567c-1.434.657-2.633 1.008-2.622 1.004z" fill="#B6DC45"/><path d="m58.611 105.914-.94-.496.001-.001-10.48-5.526-1.625 3.083 11.408 6.017c.691-.284.925-.406 1.46-.648l.465-.881-.289-1.548z" fill="#98B939"/><path d="m57.684 108.54-1.34.229-.908-2.064c-5.455-11.937-.017-24.047 12.591-27.938 2.23-.688 3.89-.878 4.787-1.05l.907 2.067c5.976 13.08-1.152 26.219-16.037 28.756z" fill="#73CA7A"/><path d="m63.145 92.225-7.687 14.53.885 2.014c1.178-.204 1.515-.251 2.198-.389l7.685-14.525-3.08-1.63z" fill="#62A872"/></g><path fill-rule="evenodd" clip-rule="evenodd" d="M198.963 184.373c-11.172-6.177-28.801-9.615-26.601-22.19 2.174-12.424 20.071-8.381 32.408-11.006 16.527-3.516 35.668-19.305 45.511-5.571 11.728 16.365 4.888 41.341-11.177 53.477-12.571 9.497-26.353-7.087-40.141-14.71zM113.453-46.368c19.153 11.796 49.895 19.307 44.982 41.257-4.853 21.688-36.019 13.09-57.95 16.689-29.38 4.82-64.374 31.026-80.562 6.04C.635-12.157 14.743-55.55 44.021-75.58c22.912-15.674 45.796 14.653 69.432 29.211z" fill="#107B89"/><circle cx="77.625" cy="183.042" r="42.965" stroke="#107B89" stroke-width="6.069"/><circle cx="-1.569" cy="118.639" r="11.021" stroke="#107B89" stroke-width="6.069"/><path fill-rule="evenodd" clip-rule="evenodd" d="M353.933-6.706c6.847-10.889 21.377-13.48 32.271-6.63 9.093 5.717 6.601 18.39.887 27.479-4.451 7.078-13.87 8.884-20.951 4.43-9.283-5.835-18.04-16.002-12.207-25.28z" fill="#107B89"/><path d="m334.592 147.046-.051-1.445a5.917 5.917 0 0 1 2.015-4.764c.704-.583 1.453-1.012 2.297-1.261l-1.529-5.471a3.345 3.345 0 0 1-.073-1.521c.157-.88.617-1.725 1.344-2.231.311-.217.568-.335.902-.474l-.182-2.741-10.035-5.465-8.489 4.588c-1.805.95-3.276 2.467-4.25 4.256l-12.607 23.149a3.85 3.85 0 0 0 1.539 5.218l15.499 8.441a3.85 3.85 0 0 0 5.217-1.539l8.55-15.697-.014-.33-.133-2.713zm-9.235 9.269c-.244.447-.857.628-1.304.385l-11.426-6.222a.955.955 0 0 1-.385-1.305l5.898-10.829a.954.954 0 0 1 1.304-.385l11.426 6.222a.955.955 0 0 1 .385 1.305l-5.898 10.829zM330.412 119.713l9.836 5.357c.447.243 1.061.062 1.304-.385l1.38-2.533a3.404 3.404 0 0 0-1.357-4.604l-5.564-3.03a3.404 3.404 0 0 0-4.604 1.358l-1.38 2.533c-.243.447-.062 1.061.385 1.304zM339.499 133.422l.43 1.458 1.236 4.473c.126.005.253.009.429.041l8.456 1.385c.127.004.303.035.402.09l3.419-5.095c.483-.768.089-1.819-.868-1.954-.352-.063-.736.05-1.047.267l-3.551 3.09.005-5.214c.023-.632-.465-1.155-1.07-1.227l-.176-.032c-.605-.072-1.224.236-1.422.836l-1.64 4.904-2.364-4.057c-.216-.311-.537-.55-.889-.613-.479-.068-.966.118-1.232.488-.108.199-.19.348-.248.573.067.231.036.407.13.587z" fill="#107B89"/><path d="m341.844 176.308 6.241-16.31-5.286-.818a.878.878 0 0 1-.75-.988l.121-.578c.068-.479.51-.818 1.038-.723l5.739.935 3.682-9.718c.838-2.248-.568-4.753-2.934-5.14l-8.456-1.384c-2.366-.387-4.509 1.537-4.39 3.921l.064 1.774 7.802 1.286a.879.879 0 0 1 .75.988l-.122.578c-.067.479-.509.818-1.038.723l-7.4-1.196.619 14.83 4.506.714c.479.068.818.51.723 1.038l-.121.578a.879.879 0 0 1-.989.75l-4.027-.647.349 8.821c.128 2.131 3.149 2.616 3.878.566h.001z" fill="#107B89"/></g><defs><clipPath id="a"><path fill="#fff" d="M0 0h374v162H0z"/></clipPath><clipPath id="b"><path fill="#fff" transform="rotate(-17.153 210.03 -9.012)" d="M0 0h59.48v59.48H0z"/></clipPath></defs></svg>