<svg width="32" height="32" viewBox="0 0 32 32" fill="none" xmlns="http://www.w3.org/2000/svg">
<path d="M20.8242 14.8378C22.8717 13.3445 24.2051 10.9277 24.2051 8.20512C24.2051 3.68081 20.5243 0 16 0C11.4757 0 7.79486 3.68081 7.79486 8.20512C7.79486 10.9277 9.12817 13.3445 11.1758 14.8378C6.0858 16.7856 2.46155 21.7207 2.46155 27.4872C2.46155 29.9756 4.48599 32 6.97436 32H25.0256C27.514 32 29.5384 29.9756 29.5384 27.4872C29.5384 21.7207 25.9142 16.7856 20.8242 14.8378ZM10.2564 8.20512C10.2564 5.03813 12.833 2.46156 16 2.46156C19.167 2.46156 21.7435 5.03813 21.7435 8.20512C21.7435 11.3721 19.167 13.9487 16 13.9487C12.833 13.9487 10.2564 11.3721 10.2564 8.20512ZM25.0256 29.5384H6.97436C5.8433 29.5384 4.92311 28.6182 4.92311 27.4871C4.92311 21.3792 9.89211 16.4102 16 16.4102C22.108 16.4102 27.077 21.3792 27.077 27.4871C27.0769 28.6182 26.1567 29.5384 25.0256 29.5384Z" fill="#161717"/>
</svg>
