<svg width="32" height="32" viewBox="0 0 32 32" fill="none" xmlns="http://www.w3.org/2000/svg">
<g clip-path="url(#clip0_80_1944)">
<path d="M18.9317 16.0262L31.3918 3.56568C32.2027 2.75517 32.2027 1.44469 31.3918 0.634186C30.5813 -0.176321 29.2709 -0.176321 28.4604 0.634186L15.9998 13.0947L3.53965 0.634186C2.72877 -0.176321 1.41867 -0.176321 0.608161 0.634186C-0.202725 1.44469 -0.202725 2.75517 0.608161 3.56568L13.0683 16.0262L0.608161 28.4868C-0.202725 29.2973 -0.202725 30.6077 0.608161 31.4183C1.01209 31.8226 1.54319 32.0257 2.07391 32.0257C2.60463 32.0257 3.13535 31.8226 3.53965 31.4183L15.9998 18.9577L28.4604 31.4183C28.8647 31.8226 29.3954 32.0257 29.9261 32.0257C30.4568 32.0257 30.9875 31.8226 31.3918 31.4183C32.2027 30.6077 32.2027 29.2973 31.3918 28.4868L18.9317 16.0262Z" fill="#161717"/>
</g>
<defs>
<clipPath id="clip0_80_1944">
<rect width="32" height="32" fill="white"/>
</clipPath>
</defs>
</svg>
