<svg width="12" height="13" viewBox="0 0 12 13" fill="none" xmlns="http://www.w3.org/2000/svg">
<path d="M5.07177 9.96673C4.11326 9.96673 3.3331 9.18657 3.3331 8.22806V4.03491H2.61722C1.99661 4.03491 1.49219 4.53926 1.49219 5.15987V10.6826C1.49219 11.3032 1.99661 11.8076 2.61722 11.8076H7.73082C8.35143 11.8076 8.85585 11.3032 8.85585 10.6826V9.96673H5.07177Z" fill="#096370"/>
<path d="M10.4921 3.11429C10.4921 2.49286 9.98851 1.98926 9.36716 1.98926H5.07168C4.45026 1.98926 3.94666 2.49286 3.94666 3.11429V8.22789C3.94666 8.84932 4.45026 9.35292 5.07168 9.35292H9.36716C9.98851 9.35292 10.4921 8.84932 10.4921 8.22789V3.11429Z" fill="#096370"/>
</svg>
