<svg width="32" height="32" viewBox="0 0 32 32" fill="none" xmlns="http://www.w3.org/2000/svg">
<path d="M29.927 12.5809C29.7437 11.9892 29.2408 11.569 28.6458 11.5131L20.5643 10.7474L17.3686 2.94228C17.133 2.37027 16.5963 2 16.0001 2C15.4039 2 14.8672 2.37027 14.6316 2.94362L11.4359 10.7474L3.35312 11.5131C2.75923 11.5704 2.25763 11.9892 2.07327 12.5809C1.88891 13.1725 2.05917 13.8214 2.50843 14.2305L8.61713 19.8208L6.81581 28.1007C6.68401 28.7095 6.91045 29.3388 7.39453 29.704C7.65473 29.9001 7.95915 30 8.26614 30C8.53082 30 8.79337 29.9255 9.029 29.7784L16.0001 25.4308L22.9687 29.7784C23.4786 30.0985 24.1214 30.0693 24.6044 29.704C25.0887 29.3377 25.3149 28.7082 25.1831 28.1007L23.3818 19.8208L29.4905 14.2316C29.9398 13.8214 30.1113 13.1736 29.927 12.5809Z" fill="#F3F3F3"/>
</svg>
