<svg width="32" height="32" viewBox="0 0 32 32" fill="none" xmlns="http://www.w3.org/2000/svg">
<g clip-path="url(#clip0_292_1892)">
<path d="M22.39 15.9998C22.39 19.5343 19.5246 22.3997 15.9901 22.3997C12.4556 22.3997 9.59048 19.5343 9.59048 15.9998C9.59048 12.4653 12.4556 9.60016 15.9901 9.60016C19.5246 9.60016 22.39 12.4653 22.39 15.9998Z" fill="#161717"/>
<path d="M31.0401 15.0398H28.9004C28.4193 8.64951 23.3407 3.56996 16.9504 3.08834V0.960016C16.9504 0.429766 16.5204 0 15.9904 0C15.4601 0 15.0304 0.429766 15.0304 0.960016V3.08834C8.63985 3.56996 3.56088 8.64951 3.07984 15.0398H0.960016C0.429766 15.0398 0 15.4698 0 15.9998C0 16.53 0.429766 16.9598 0.960016 16.9598H3.07984C3.56088 23.35 8.63985 28.4296 15.0301 28.9112V31.0401C15.0301 31.5704 15.4599 32.0001 15.9901 32.0001C16.5201 32.0001 16.9498 31.5704 16.9498 31.0401V28.9112C23.3404 28.4299 28.4193 23.3503 28.9004 16.9598H31.0401C31.5704 16.9598 32.0001 16.53 32.0001 15.9998C32.0001 15.4698 31.5704 15.0398 31.0401 15.0398ZM15.9901 27.0392C9.8934 27.0389 4.95124 22.0962 4.95124 15.9995C4.95154 9.90249 9.89428 4.96032 15.991 4.96032C22.088 4.96032 27.0304 9.90307 27.0304 15.9998C27.0231 22.0941 22.0845 27.0325 15.9901 27.0392Z" fill="#161717"/>
</g>
<defs>
<clipPath id="clip0_292_1892">
<rect width="32" height="32" fill="white"/>
</clipPath>
</defs>
</svg>
