<svg width="12" height="13" viewBox="0 0 12 13" fill="none" xmlns="http://www.w3.org/2000/svg">
<path d="M10.243 2.65585C7.89986 0.312927 4.10073 0.312666 1.75729 2.65585C-0.585893 4.99903 -0.585632 8.79816 1.75729 11.1416C4.10047 13.4843 7.8996 13.4845 10.243 11.1416C12.586 8.79816 12.5857 4.99929 10.243 2.65585ZM6.78253 9.50747C6.78253 9.93974 6.43217 10.2901 5.9999 10.2901C5.56763 10.2901 5.21728 9.93974 5.21728 9.50747V6.37697C5.21728 5.9447 5.56763 5.59435 5.9999 5.59435C6.43217 5.59435 6.78253 5.9447 6.78253 6.37697V9.50747ZM5.98608 5.0392C5.53528 5.0392 5.23476 4.71989 5.24415 4.32571C5.23476 3.91248 5.53528 3.60282 5.99521 3.60282C6.45539 3.60282 6.74653 3.91274 6.75618 4.32571C6.75592 4.71989 6.45565 5.0392 5.98608 5.0392Z" fill="#B9BBBB"/>
</svg>
