<svg width="62" height="62" viewBox="0 0 62 62" fill="none" xmlns="http://www.w3.org/2000/svg">
<path d="M51.005 56.3333C51.005 57.6213 42.2741 58.6667 31.5025 58.6667C20.7309 58.6667 12 57.6213 12 56.3333C12 55.0453 20.7309 54 31.5025 54C42.2741 54 51.005 55.0453 51.005 56.3333Z" fill="#355D98" fill-opacity="0.2"/>
<path d="M53.5879 16.6147C53.5254 15.2224 53.5254 13.894 53.5254 12.5655C53.5254 11.4922 52.7001 10.6678 51.622 10.6678C43.6931 10.6678 37.666 8.39198 32.6547 3.52154C32.2927 3.18632 31.817 3 31.323 3C30.829 3 30.3533 3.18632 29.9914 3.52154C24.98 8.39198 18.953 10.6693 11.0241 10.6693C9.94753 10.6693 9.12062 11.4907 9.12062 12.5671C9.12062 13.894 9.12062 15.2224 9.05821 16.6147C8.8039 29.896 8.42321 48.11 30.6888 55.7633L31.3238 55.8893L31.9573 55.7633C54.1589 48.11 53.8422 29.9582 53.5879 16.6147ZM29.8011 35.0184C29.432 35.3407 28.9592 35.5201 28.4686 35.524H28.4062C27.8976 35.524 27.3906 35.272 27.0738 34.8924L21.1732 28.3778L24.0283 25.8484L28.659 30.9709L38.936 21.2315L41.5369 24.0129L29.8011 35.0184Z" fill="#1E9C91"/>
</svg>
