<svg width="28" height="29" fill="none" xmlns="http://www.w3.org/2000/svg"><path d="M25.35 7.955 14.5 2.457l-.004-.002a1.696 1.696 0 0 0-1.536.014L8.307 4.94a.725.725 0 0 0-.109.058l-5.576 2.96c-.56.292-.907.866-.907 1.498V19.67c0 .631.347 1.205.907 1.498l10.334 5.484.004.003a1.692 1.692 0 0 0 1.536.014l10.854-5.5c.577-.288.935-.867.935-1.512V9.468c0-.646-.358-1.225-.935-1.513zm-11.723-4.21a.252.252 0 0 1 .226-.002L24.01 8.888l-3.953 1.968-9.928-5.254 3.5-1.857zm-.614 21.31-9.719-5.159-.004-.002a.251.251 0 0 1-.136-.223v-9.567l9.859 5.14v9.81zM13.74 14 3.935 8.888l4.656-2.47 9.88 5.227-4.731 2.356zm11.106 5.657a.25.25 0 0 1-.14.226l-10.254 5.195v-9.825l4.721-2.35v2.464a.72.72 0 0 0 1.44 0v-3.181l4.233-2.108v9.579z" fill="#161717"/></svg>