<svg width="28" height="29" fill="none" xmlns="http://www.w3.org/2000/svg"><path d="M21.575 5.107a.867.867 0 0 0-.866.866v.722a10.235 10.235 0 0 0-6.763-2.527c-5.702 0-10.341 4.656-10.341 10.378a.867.867 0 0 0 1.733 0c0-4.767 3.861-8.645 8.608-8.645a8.52 8.52 0 0 1 5.58 2.06h-.794a.867.867 0 0 0 0 1.733h2.843a.867.867 0 0 0 .866-.866V5.973a.867.867 0 0 0-.866-.866zM23.529 13.714a.867.867 0 0 0-.866.867c0 4.767-3.862 8.645-8.609 8.645a8.52 8.52 0 0 1-5.526-2.014h.832a.867.867 0 0 0 0-1.733H6.517l-.023.002a.84.84 0 0 0-.098.01c-.024.004-.048.006-.072.012-.029.006-.057.017-.085.026-.026.01-.052.017-.078.028-.023.011-.046.025-.069.038-.027.015-.054.03-.08.049-.006.005-.013.007-.02.012-.015.012-.026.026-.04.038a.823.823 0 0 0-.268.426c-.007.026-.015.053-.019.08a.945.945 0 0 0-.01.093c0 .017-.005.035-.005.053V23.2a.867.867 0 0 0 1.733 0v-.689a10.239 10.239 0 0 0 6.671 2.446c5.702 0 10.341-4.655 10.341-10.377a.866.866 0 0 0-.866-.867z" fill="#161717"/></svg>