<svg width="28" height="29" fill="none" xmlns="http://www.w3.org/2000/svg"><path fill-rule="evenodd" clip-rule="evenodd" d="M7.315 9.54a.84.84 0 0 1 .84-.84h13.44a.84.84 0 1 1 0 1.68H8.155a.84.84 0 0 1-.84-.84zM7.315 5.34a.84.84 0 0 1 .84-.84h13.44a.84.84 0 1 1 0 1.68H8.155a.84.84 0 0 1-.84-.84z" fill="#161717"/><path fill-rule="evenodd" clip-rule="evenodd" d="M11.095 5.34a.84.84 0 0 1 .84-.84 6.3 6.3 0 1 1 0 12.6h-1.607l7.632 6.94a.84.84 0 0 1-1.13 1.242l-9.24-8.4a.84.84 0 0 1 .565-1.461h3.78a4.62 4.62 0 1 0 0-9.24.84.84 0 0 1-.84-.84z" fill="#161717"/></svg>